<?xml version="1.0" standalone="no"?>
<!DOCTYPE svg PUBLIC "-//W3C//DTD SVG 20010904//EN"
 "http://www.w3.org/TR/2001/REC-SVG-20010904/DTD/svg10.dtd">
<svg version="1.0" xmlns="http://www.w3.org/2000/svg"
 width="726.000000pt" height="726.000000pt" viewBox="0 0 726.000000 726.000000"
 preserveAspectRatio="xMidYMid meet">
<metadata>
Created by potrace 1.11, written by Peter Selinger 2001-2013
</metadata>
<g transform="translate(0.000000,726.000000) scale(0.100000,-0.100000)"
fill="#000000" stroke="none">
<path d="M2122 6555 c-448 -70 -827 -259 -1132 -565 -317 -317 -519 -735 -570
-1175 -14 -122 -14 -2268 0 -2390 32 -273 136 -575 277 -805 317 -514 832
-849 1434 -935 155 -22 2843 -22 2998 0 602 86 1117 421 1434 935 141 230 245
532 277 805 14 122 14 2268 0 2390 -95 826 -708 1514 -1520 1704 -220 52 -186
51 -1702 50 -1104 -1 -1431 -4 -1496 -14z m1078 -2652 c234 -585 427 -1063
430 -1063 3 0 197 478 432 1063 l426 1062 226 3 226 2 0 -1315 0 -1315 -175 0
-175 0 0 478 c0 262 7 707 16 987 8 281 14 538 12 572 l-3 62 -425 -1050 -425
-1049 -135 0 -135 0 -425 1049 c-270 666 -426 1040 -428 1025 -2 -14 2 -165 8
-337 7 -172 14 -633 17 -1024 l5 -713 -176 0 -176 0 0 1315 0 1315 227 -2 227
-3 426 -1062z"/>
</g>
</svg>
